Knight.And.Day.2010.R5.LINE.H264.Feel-Free

Genre:Thriller / Comedie / Actiune
Language:English
IMDb:http://www.imdb.com/title/tt1013743/
Source:DVD5.RUS/LAP..Thanks

General
Complete name :Knight.And.Day.2010.R5.LINE.H264.Feel-Free.mp4
Format : MPEG-4
Format profile : Base Media
Codec ID : isom
File size : 1.61 GiB
Duration : 1h 45mn
Overall bit rate : 2 192 Kbps
Video #2
ID : 2
Format : AVC
Format/Info : Advanced Video Codec
Format profile : Baseline@L3.0
Format settings, CABAC : No
Format settings, ReFrames : 1 frame
Muxing mode : Container profile=Baseline@1.3
Codec ID : avc1
Codec ID/Info : Advanced Video Coding
Duration : 1h 45mn
Bit rate mode : Variable
Bit rate : 2 025 Kbps
Width : 688 pixels
Height : 288 pixels
Display aspect ratio : 2.35:1
Frame rate mode : Constant
Frame rate : 25.000 fps
Resolution : 24 bits
Colorimetry : 4:2:0
Scan type : Progressive
Bits/(Pixel*Frame) : 0.409
Stream size : 1.49 GiB (92%)
Audio #1
ID : 1
Format : AAC
Format/Info : Advanced Audio Codec
Format version : Version 4
Format profile : LC
Format settings, SBR : No
Codec ID : 40
Duration : 1h 45mn
Bit rate mode : Constant
Bit rate : 160 Kbps
Channel(s) : 2 channels
Channel positions : L R
Sampling rate : 48.0 KHz
Resolution : 16 bits
Stream size : 120 MiB (7%)

Plot
June Havens (Diaz) finds her everyday life tangled with that of a secret agent (Cruise) who has realized